<svg xmlns="http://www.w3.org/2000/svg" viewBox="0 0 24 24" role="presentation" aria-hidden="true" focusable="false" style="height:40px;width:40px;display:block;fill:#60B6B5">
    <path d="m3.83 9.4a.5.5 0 0 1 -.17-.03l-3.25-1.18a.5.5 0 0 1 .34-.94l3.25 1.18a.5.5 0 0 1 -.17.97zm-3.24 2.15 2.6-.27a.5.5 0 0 0 -.1-1l-2.61.27a.5.5 0 0 0 .05 1 .63.63 0 0 0 .05 0zm4.28-4.18a.5.5 0 0 0 -.02-.71l-1.87-1.78a.5.5 0 1 0 -.69.73l1.87 1.78a.5.5 0 0 0 .71-.02zm3.68 6.32v3.28a5.28 5.28 0 0 0 5.28 5.28h2.44.11a5.17 5.17 0 0 0 5.07-5.28l-.07-3.32a2 2 0 0 0 -2-1.96h-8.82a2 2 0 0 0 -2 2zm4.7 2.05a1.74 1.74 0 1 1 2.6 1.51 4.18 4.18 0 0 0 .17.83 5.97 5.97 0 0 0 .71 1.15.43.43 0 0 1 -.41.58h-2.63a.43.43 0 0 1 -.41-.58 5.8 5.8 0 0 0 .66-1.11 5.17 5.17 0 0 0 .19-.87 1.74 1.74 0 0 1 -.87-1.51z"></path>
    <path d="m23 19.81v-9.32a.5.5 0 0 0 -.5-.5h-1.11l-.22-.17a.6.6 0 0 1 -.18-.43v-2.4a6 6 0 0 0 -12 0v2.4a.6.6 0 0 1 -.6.6h-.9a.5.5 0 0 0 -.5.5v12a .5.5 0 0 0 .5.5h15a .5.5 0 0 0 .5-.5.5.5 0 0 1 1 0 1.5 1.5 0 0 1 -1.5 1.5h-15a1.5 1.5 0 0 1 -1.5-1.5v-12a1.5 1.5 0 0 1 1.5-1.5h.5v-2a7 7 0 0 1 14 0v2h .5a1.5 1.5 0 0 1 1.5 1.49v9.32a.5.5 0 0 1 -1 0zm-8.23-10.81a.5.5 0 0 0 0 1h4.13a.6.6 0 0 0 .6-.6v-2.4a4.5 4.5 0 0 0 -9 0v2.4a.6.6 0 0 0 .6.6h1.25a.5.5 0 0 0 0-1h-.85v-2a3.5 3.5 0 0 1 7 0v2z" fill="#484848"></path>
</svg>