<svg viewBox="0 0 32 32" xmlns="http://www.w3.org/2000/svg" aria-hidden="true" role="presentation" focusable="false" style="display: block; height: 24px; width: 24px; fill: currentcolor;">
    <path d="M16 0c6.627 0 12 5.373 12 12 0 6.337-3.814 12.751-11.346 19.257L16 31.82l-1.076-.932C7.671 24.509 4 18.218 4 12 4 5.423 9.397 0 16 0zm0 2C10.504 2 6 6.525 6 12c0 5.44 3.249 11.118 9.831 17.02l.169.149.576-.518c6.178-5.65 9.293-11.092 9.42-16.318L26 12c0-5.523-4.477-10-10-10zm0 5a5 5 0 1 1 0 10 5 5 0 0 1 0-10zm0 2a3 3 0 1 0 0 6 3 3 0 0 0 0-6z"></path>
</svg>