<svg xmlns="http://www.w3.org/2000/svg" viewBox="0 0 24 24" role="presentation" aria-hidden="true" focusable="false" style="height:40px;width:40px;display:block;fill:#60B6B5">
    <path d="m18.66 6.51-14.84 9.65a1 1 0 0 0 .55 1.84h15.62a1 1 0 0 0 1-1v-9.24a1.5 1.5 0 0 0 -2.32-1.26z"></path>
    <path d="m9.25 12a1.25 1.25 0 1 1 -1.25-1.25 1.25 1.25 0 0 1 1.25 1.25zm11.75-8h-14a .5.5 0 0 0 0 1h14a1 1 0 0 1 1 1v12a1 1 0 0 1 -1 1h-1.5a.5.5 0 0 0 0 1h1.5a2 2 0 0 0 2-2v-12a2 2 0 0 0 -2-2zm-5 15h-13a1 1 0 0 1 -1-1v-12a1 1 0 0 1 1-1h1a .5.5 0 0 0 0-1h-1a2 2 0 0 0 -2 2v12a2 2 0 0 0 2 2h13a .5.5 0 0 0 0-1zm-7.17-11.17a4.25 4.25 0 1 0 3.42 4.17 4.21 4.21 0 0 0 -.46-1.92.5.5 0 0 0 -.89.45 3.25 3.25 0 0 1 -.61 3.77 3.67 3.67 0 0 0 -4.56.02 3.25 3.25 0 0 1 2.27-5.57 3.3 3.3 0 0 1 .63.06.5.5 0 1 0 .19-.98zm5.67 3.17h5.5a.5.5 0 0 0 0-1h-5.5a.5.5 0 0 0 0 1zm0 2h5.5a.5.5 0 0 0 0-1h-5.5a.5.5 0 0 0 0 1zm0 2h5.5a.5.5 0 0 0 0-1h-5.5a.5.5 0 0 0 0 1z" fill="#484848"></path>
</svg>