<svg viewBox="0 0 32 32" xmlns="http://www.w3.org/2000/svg" aria-hidden="true" role="presentation" focusable="false" style="display: block; height: 24px; width: 24px; fill: currentcolor;">
    <path d="M22 2a7.003 7.003 0 0 1 6.983 6.517l.013.24L29 9v7a2 2 0 0 1-1.344 1.89l-.151.046-.505.13V25a5 5 0 0 1-9.995.217L17 25v-7h-2v7a5 5 0 0 1-9.995.217L5 25v-6.937l-.501-.128a1.997 1.997 0 0 1-1.493-1.775L3 16V8.982l.005-.244a7 7 0 0 1 12.994-3.343A6.998 6.998 0 0 1 22 2zM10 16a6.978 6.978 0 0 0-3 .673V25a3 3 0 0 0 5.995.176L13 25l.001-8.326A6.978 6.978 0 0 0 10 16zm12 0a6.978 6.978 0 0 0-3 .673V25a3 3 0 0 0 5.995.176L25 25l.002-8.326A6.972 6.972 0 0 0 22 16zm0-4c-1.765 0-3.468.416-5 1.2v2.316l.08-.053a8.955 8.955 0 0 1 4.234-1.437l.354-.02L22 14a8.96 8.96 0 0 1 4.538 1.227l.288.176.174.115.001-2.318A10.949 10.949 0 0 0 22 12zm-12 0c-1.765 0-3.468.416-5 1.2v2.316l.175-.115a8.954 8.954 0 0 1 4.134-1.375l.344-.02L10 14c1.659 0 3.25.451 4.628 1.28l.292.183.08.053.001-2.316A10.949 10.949 0 0 0 10 12zm12-8c-2.617 0-4.775 2.014-4.983 4.573l-.013.22L17 9v1.996A12.966 12.966 0 0 1 22 10c1.741 0 3.434.343 5 .997V9.018l-.003-.206A5 5 0 0 0 22 4zM10 4C7.383 4 5.225 6.014 5.017 8.573l-.013.22L5 9v1.996A12.966 12.966 0 0 1 10 10c1.741 0 3.434.343 5 .997V9l-.003-.188a5 5 0 0 0-4.774-4.807z"></path>
</svg>