<svg viewBox="0 0 32 32" xmlns="http://www.w3.org/2000/svg" aria-hidden="true" role="presentation" focusable="false" style="display: block; height: 24px; width: 24px; fill: currentcolor;">
    <path d="m16.603 1.202.093.08.085.093 3.699 4.625h1.52v2h-2v3.943l.007.057h1.993v2h-1.758l1.647 14h4.111v2h-20v-2h4.11l1.647-14h-1.757v-2h1.992l.008-.066v-3.934h-2v-2h1.519l3.7-4.625a1 1 0 0 1 1.384-.173zm1.625 12.798h-4.457l-1.647 14h7.751zm-2.228 9a1 1 0 1 1 0 2 1 1 0 0 1 0-2zm0-5a1 1 0 1 1 0 2 1 1 0 0 1 0-2zm-9.536-4.879 1.415 1.415-2.829 2.828-1.414-1.414zm19.072 0 2.828 2.829-1.414 1.414-2.829-2.828zm-7.536-5.121h-4v4h4zm-13 1v2h-4v-2zm26 0v2h-4v-2zm-25.95-6.364 2.83 2.828-1.416 1.416-2.828-2.83zm21.9 0 1.414 1.414-2.828 2.829-1.415-1.415zm-10.95.964-1.921 2.4h3.841z"></path>
</svg>