<svg viewBox="0 0 32 32" xmlns="http://www.w3.org/2000/svg" aria-hidden="true" role="presentation" focusable="false" style="display: block; height: 24px; width: 24px; fill: currentcolor;">
    <path d="m30.2193875.43894226.894425 1.78885548-2.114775 1.05614452.0009625 25.04945774c0 1.0543764-.8158639 1.9181664-1.8507358 1.9945144l-.1492642.0054856h-22c-1.0543609 0-1.91816504-.8158674-1.99451426-1.8507362l-.00548574-.1492638-.0009625-12.0494577-1.218575.6104854-.894425-1.7888554 2.113-1.05663.0009625-8.7155323h2l-.0009625 7.7155323zm-3.22035 3.845-22 11.00000004.0009625 13.0494577 5.9990375-.0004577.0009625-9.9995423c0-1.0543764.8158639-1.9181664 1.8507358-1.9945144l.1492642-.0054856h6c1.0543764 0 1.9181664.8158639 1.9945144 1.8507358l.0054856.1492642-.0009625 9.9995423 6.0009625.0004577zm-7.9990375 14.04945774h-6l-.0009625 9.9995423h6zm3.6666-7.66663c.7363778 0 1.33333.5969522 1.33333 1.33333s-.5969522 1.33333-1.33333 1.33333-1.33333-.5969522-1.33333-1.33333.5969522-1.33333 1.33333-1.33333z"></path>
</svg>