<svg viewBox="0 0 32 32" xmlns="http://www.w3.org/2000/svg" aria-hidden="true" role="presentation" focusable="false" style="display: block; height: 24px; width: 24px; fill: currentcolor;">
    <path d="M29 2v10c0 .964-.686 1.78-1.66 1.966L27 14h-1.031l2.73 10.18a42.58 42.58 0 0 0 1.677-1.226l1.251 1.56A24.895 24.895 0 0 1 16 30 24.892 24.892 0 0 1 .78 24.834l-.403-.316 1.25-1.56c.617.493 1.256.954 1.915 1.38L7.45 10.005c-1.2-.002-2.312.886-2.699 2.043L3.686 16h-2.07l1.15-4.292a5 5 0 0 1 4.601-3.7L8 8.002l10.072-.004.035-.218a7.008 7.008 0 0 1 6.152-5.74l.255-.024.244-.013L25 2zM17 19.998V22h-2v-2.002l-4.104.001-1.856 6.93A23.014 23.014 0 0 0 16 28c2.486 0 4.91-.395 7.203-1.15l-1.836-6.851zm-5-10l-2.565.001-4.12 15.374c.6.316 1.213.604 1.839.865l2.208-8.239H15v-2.125a4.002 4.002 0 0 1-2.995-3.674zM26.999 4h-1.98l-.207.003a4.999 4.999 0 0 0-4.795 4.573l-.013.221L20 9v3a4.002 4.002 0 0 1-3 3.874v2.125h5.902l2.18 8.14a22.853 22.853 0 0 0 1.833-.888L23.363 12l-1.07-4h2.07l1.07 4L27 11.999zm-9 5.998h-4L14 12a2 2 0 0 0 2 2c1.054 0 2-.895 2-2z"></path>
</svg>