<svg viewBox="0 0 32 32" xmlns="http://www.w3.org/2000/svg" aria-hidden="true" role="presentation" focusable="false" style="display: block; height: 24px; width: 24px; fill: currentcolor;">
    <path d="m22 7c2.7614237 0 5 2.23857625 5 5 0 1.4483542-.6158223 2.7528755-1.5999105 3.6660075 3.2075261 1.3080072 5.4902937 4.4154553 5.5960734 8.0686302l.0038371.2653623h-2c0-3.5261219-2.6071882-6.4433024-5.9989899-6.9289666l-.0001094-2.2420576c1.1647219-.4120906 1.9990993-1.5230936 1.9990993-2.8289758 0-1.6568542-1.3431458-3-3-3-1.5976809 0-2.9036609 1.24892-2.9949073 2.8237272l-.0050927.1762728.0819616.0625271c1.1677123.9152829 1.9180384 2.3387539 1.9180384 3.9374729 0 1.4479059-.615441 2.7520678-1.5989966 3.6651593 3.207085 1.309499 5.4893907 4.4166818 5.5951595 8.0694784l.0038371.2653623h-2c0-3.5261219-2.6071882-6.4433024-5.9989899-6.9289666l-.0001094-2.2420576c1.1647219-.4120906 1.9990993-1.5230936 1.9990993-2.8289758 0-1.6568542-1.3431458-3-3-3s-3 1.3431458-3 3c0 1.3062521.8348501 2.4175144 2.0000889 2.8293257l-.0000889 2.2415643c-3.3148214.4741509-5.8804754 3.2706475-5.99594098 6.6884602l-.00405902.2406498h-2c0-3.7671593 2.31452169-6.9937332 5.5991096-8.335266-.9836686-.9126662-1.5991096-2.2168281-1.5991096-3.664734 0-1.598719.7503261-3.02219 1.9180384-3.9374729l.0819616-.0625271c0-1.6568542-1.3431458-3-3-3-1.65685425 0-3 1.3431458-3 3 0 1.3062521.8348501 2.4175144 2.00008893 2.8293257l-.00008893 2.2415643c-3.31482137.4741509-5.8804754 3.2706475-5.99594098 6.6884602l-.00405902.2406498h-2c0-3.7671593 2.31452169-6.9937332 5.5991096-8.335266-.98366859-.9126662-1.5991096-2.2168281-1.5991096-3.664734 0-2.76142375 2.23857625-5 5-5 2.4601119 0 4.505252 1.77670575 4.9222714 4.1169685.3461998-.0766772.707259-.1169685 1.0777286-.1169685s.7315288.0402913 1.0790344.1167309c.4156259-2.33994891 2.4608009-4.1167309 4.9209656-4.1167309z"></path>
</svg>