<svg xmlns="http://www.w3.org/2000/svg" preserveAspectRatio="xMidYMid meet" aria-hidden="true" role="presentation" focusable="false" viewBox="0 0 100 100" style="display: block; height: 52px; width: 52px; fill: currentcolor;">
    <g id="IcSystemRooftopDeck32__R_G">
        <g id="IcSystemRooftopDeck32__R_G_L_0_G" transform=" translate(50, 50) scale(2, 2) translate(-40, -40)">
            <g id="IcSystemRooftopDeck32__R_G_L_0_G_L_1_G_N_6_T_0" transform=" translate(40, 40)">
                <g id="IcSystemRooftopDeck32__R_G_L_0_G_L_1_G" transform=" translate(60, 60) translate(-40, -40)">
                    <path id="IcSystemRooftopDeck32__R_G_L_0_G_L_1_G_D_0_P_0" fill="#222222" fill-opacity="1" fill-rule="nonzero" d=" M53 39 C53,39 53,55 53,55 C53,55 51,55 51,55 C51,55 51,39 51,39 C51,39 53,39 53,39z "></path>
                    <path id="IcSystemRooftopDeck32__R_G_L_0_G_L_1_G_D_1_P_0" fill="#222222" fill-opacity="1" fill-rule="nonzero" d=" M52 47 C52,47 52,49 52,49 C52,49 45,49 45,49 C45,49 45,55 45,55 C45,55 43,55 43,55 C43,55 43,49 43,49 C43,47.95 43.81,47.08 44.85,47.01 C44.85,47.01 45,47 45,47 C45,47 52,47 52,47z "></path>
                    <path id="IcSystemRooftopDeck32__R_G_L_0_G_L_1_G_D_2_P_0" fill="#222222" fill-opacity="1" fill-rule="nonzero" d=" M29 39 C29,39 29,55 29,55 C29,55 27,55 27,55 C27,55 27,39 27,39 C27,39 29,39 29,39z "></path>
                    <path id="IcSystemRooftopDeck32__R_G_L_0_G_L_1_G_D_3_P_0" fill="#222222" fill-opacity="1" fill-rule="nonzero" d=" M35 47 C36.05,47 36.92,47.81 36.99,48.85 C36.99,48.85 37,49 37,49 C37,49 37,55 37,55 C37,55 35,55 35,55 C35,55 35,49 35,49 C35,49 28,49 28,49 C28,49 28,47 28,47 C28,47 35,47 35,47z "></path>
                    <path id="IcSystemRooftopDeck32__R_G_L_0_G_L_1_G_D_4_P_0" fill="#222222" fill-opacity="1" fill-rule="nonzero" d=" M49 43 C49,43 49,45 49,45 C49,45 31,45 31,45 C31,45 31,43 31,43 C31,43 49,43 49,43z "></path>
                    <path id="IcSystemRooftopDeck32__R_G_L_0_G_L_1_G_D_5_P_0" fill="#222222" fill-opacity="1" fill-rule="nonzero" d=" M41 34 C41,34 41,55 41,55 C41,55 39,55 39,55 C39,55 39,34 39,34 C39,34 41,34 41,34z "></path>
                </g>
            </g>
            <g id="IcSystemRooftopDeck32__R_G_L_0_G_L_0_G_N_6_T_0" transform=" translate(40, 40)">
                <g id="IcSystemRooftopDeck32__R_G_L_0_G_L_0_G" transform=" translate(60, 60.5) translate(-40, -40.5)">
                    <path id="IcSystemRooftopDeck32__R_G_L_0_G_L_0_G_D_0_P_0" stroke="#222222" stroke-linecap="round" stroke-linejoin="round" fill="none" stroke-width="2" stroke-opacity="1" d=" M40 26 C45.59,26 50.41,29.27 52.65,34 C52.65,34 27.35,34 27.35,34 C29.59,29.27 34.42,26 40,26z "></path>
                </g>
            </g>
        </g>
    </g>
    <g id="IcSystemRooftopDeck32_time_group"></g>
    <defs>
        <animate repeatCount="0" dur="3.3333333333333335" begin="0s" href="#IcSystemRooftopDeck32__R_G_L_0_G_L_1_G_D_5_P_0" fill="freeze" attributeName="d" attributeType="XML" from="M41 34 C41,34 41,55 41,55 C41,55 39,55 39,55 C39,55 39,34 39,34 C39,34 41,34 41,34z " to="M41 34 C41,34 41,55 41,55 C41,55 39,55 39,55 C39,55 39,34 39,34 C39,34 41,34 41,34z " keyTimes="0;0.01;0.02;0.025;0.03;0.22;0.225;0.3;0.35;1" values="M41 34 C41,34 41,55 41,55 C41,55 39,55 39,55 C39,55 39,34 39,34 C39,34 41,34 41,34z ;M41.03 36.25 C41.03,36.25 41,55 41,55 C41,55 39,55 39,55 C39,55 39.03,36.25 39.03,36.25 C39.03,36.25 41.03,36.25 41.03,36.25z ;M41.06 38.06 C41.06,38.06 41,55 41,55 C41,55 39,55 39,55 C39,55 39.06,38.06 39.06,38.06 C39.06,38.06 41.06,38.06 41.06,38.06z ;M41.04 39.31 C41.04,39.31 41,55 41,55 C41,55 39,55 39,55 C39,55 39.04,39.31 39.04,39.31 C39.04,39.31 41.04,39.31 41.04,39.31z ;M41 34 C41,34 41,55 41,55 C41,55 39,55 39,55 C39,55 39,34 39,34 C39,34 41,34 41,34z ;M41 34 C41,34 41,55 41,55 C41,55 39,55 39,55 C39,55 39,34 39,34 C39,34 41,34 41,34z ;M41 39.75 C41,39.75 41,55 41,55 C41,55 39,55 39,55 C39,55 39,39.75 39,39.75 C39,39.75 41,39.75 41,39.75z ;M41 33.57 C41,33.57 41,55 41,55 C41,55 39,55 39,55 C39,55 39,33.57 39,33.57 C39,33.57 41,33.57 41,33.57z ;M41 34 C41,34 41,55 41,55 C41,55 39,55 39,55 C39,55 39,34 39,34 C39,34 41,34 41,34z ;M41 34 C41,34 41,55 41,55 C41,55 39,55 39,55 C39,55 39,34 39,34 C39,34 41,34 41,34z " keySplines="0.167 0.167 0.833 0.833;0.167 0.167 0.833 0.833;0.167 0.167 0.833 0.833;0.167 0.167 0.833 0.833;0.167 0.167 0.833 0.833;0.167 0.167 0.833 0.833;0.167 0.167 0.667 1;0.333 0 0.667 1;0 0 0 0" calcMode="spline" data-original-duration="3.3333333333333335s" max="3.3333333333333335"></animate>
        <animateTransform repeatCount="0" dur="3.3333333333333335" begin="0s" href="#IcSystemRooftopDeck32__R_G_L_0_G_L_1_G_N_6_T_0" fill="freeze" attributeName="transform" from="1 1" to="1 1" type="scale" additive="sum" keyTimes="0;0.025;0.17;0.505;0.53;0.675;1" values="1 1;0.75 0.75;1 1;1 1;0.75 0.75;1 1;1 1" keySplines="0.167 0.167 0 1;0.54 0 0.207 1;0.167 0 0.833 1;0.167 0.167 0 1;0.54 0 0.207 1;0 0 0 0" calcMode="spline" data-original-duration="3.3333333333333335s" max="3.3333333333333335"></animateTransform>
        <animateTransform repeatCount="0" dur="3.3333333333333335" begin="0s" href="#IcSystemRooftopDeck32__R_G_L_0_G_L_1_G_N_6_T_0" fill="freeze" attributeName="transform" from="-60 -60" to="-60 -60" type="translate" additive="sum" keyTimes="0;1" values="-60 -60;-60 -60" keySplines="0 0 1 1" calcMode="spline" data-original-duration="3.3333333333333335s" max="3.3333333333333335"></animateTransform>
        <animate repeatCount="0" dur="3.3333333333333335" begin="0s" href="#IcSystemRooftopDeck32__R_G_L_0_G_L_0_G_D_0_P_0" fill="freeze" attributeName="d" attributeType="XML" from="M40 26 C45.59,26 50.41,29.27 52.65,34 C52.65,34 27.35,34 27.35,34 C29.59,29.27 34.42,26 40,26z " to="M40 26 C45.59,26 50.41,29.27 52.65,34 C52.65,34 27.35,34 27.35,34 C29.59,29.27 34.42,26 40,26z " keyTimes="0;0.025;0.03;0.22;0.225;0.3;0.35;1" values="M40 26 C45.59,26 50.41,29.27 52.65,34 C52.65,34 27.35,34 27.35,34 C29.59,29.27 34.42,26 40,26z ;M40 26 C40.91,26 40.73,35.04 40.72,39.79 C40.72,39.79 39.1,39.79 39.1,39.79 C39.13,35.04 38.97,26.03 40,26z ;M40 26 C40,26 40.07,29.23 40.07,33.98 C40.07,33.98 40.03,33.98 40.03,33.98 C40.06,29.23 40,26 40,26z ;M40 26 C40,26 40.07,29.23 40.07,33.98 C40.07,33.98 40.03,33.98 40.03,33.98 C40.06,29.23 40,26 40,26z ;M40 26 C40.91,26 40.73,35.04 40.72,39.79 C40.72,39.79 39.1,39.79 39.1,39.79 C39.13,35.04 38.97,26.03 40,26z ;M40 25.38 C45.59,25.38 51.03,28.65 53.28,33.38 C53.28,33.38 26.54,33.38 26.54,33.38 C28.78,28.65 34.42,25.38 40,25.38z ;M40 26 C45.59,26 50.41,29.27 52.65,34 C52.65,34 27.35,34 27.35,34 C29.59,29.27 34.42,26 40,26z ;M40 26 C45.59,26 50.41,29.27 52.65,34 C52.65,34 27.35,34 27.35,34 C29.59,29.27 34.42,26 40,26z " keySplines="0.167 0.167 0.833 0.833;0.167 0.167 0.833 0.833;0.167 0.167 0.833 0.833;0.167 0.167 0.833 0.833;0.167 0.167 0.667 1;0.333 0 0.667 1;0 0 0 0" calcMode="spline" data-original-duration="3.3333333333333335s" max="3.3333333333333335"></animate>
        <animateTransform repeatCount="0" dur="3.3333333333333335" begin="0s" href="#IcSystemRooftopDeck32__R_G_L_0_G_L_0_G_N_6_T_0" fill="freeze" attributeName="transform" from="1 1" to="1 1" type="scale" additive="sum" keyTimes="0;0.025;0.17;0.505;0.53;0.675;1" values="1 1;0.75 0.75;1 1;1 1;0.75 0.75;1 1;1 1" keySplines="0.167 0.167 0 1;0.54 0 0.207 1;0.167 0 0.833 1;0.167 0.167 0 1;0.54 0 0.207 1;0 0 0 0" calcMode="spline" data-original-duration="3.3333333333333335s" max="3.3333333333333335"></animateTransform>
        <animateTransform repeatCount="0" dur="3.3333333333333335" begin="0s" href="#IcSystemRooftopDeck32__R_G_L_0_G_L_0_G_N_6_T_0" fill="freeze" attributeName="transform" from="-60 -60" to="-60 -60" type="translate" additive="sum" keyTimes="0;1" values="-60 -60;-60 -60" keySplines="0 0 1 1" calcMode="spline" data-original-duration="3.3333333333333335s" max="3.3333333333333335"></animateTransform>
        <animate attributeType="XML" attributeName="opacity" dur="3" from="0" to="1" href="#IcSystemRooftopDeck32_time_group" data-original-duration="3s" repeatCount="0" max="3"></animate>
    </defs>
</svg>