<svg xmlns="http://www.w3.org/2000/svg" preserveAspectRatio="xMidYMid meet" aria-hidden="true" role="presentation" focusable="false" viewBox="0 0 100 100" style="display: block; height: 52px; width: 52px; fill: currentcolor;">
    <g id="IcSystemPoolTable32__R_G">
        <g id="IcSystemPoolTable32__R_G_L_0_G" transform=" translate(50, 50) scale(2, 2) translate(-40, -40)">
            <g id="IcSystemPoolTable32__R_G_L_0_G_L_2_G_N_8_T_0" transform=" translate(40, 40)">
                <g id="IcSystemPoolTable32__R_G_L_0_G_L_2_G">
                    <path id="IcSystemPoolTable32__R_G_L_0_G_L_2_G_D_0_P_0" fill="#222222" fill-opacity="1" fill-rule="nonzero" d=" M43.63 38.73 C43.63,38.73 48.95,54.68 48.95,54.68 C48.95,54.68 47.05,55.32 47.05,55.32 C47.05,55.32 41.73,39.36 41.73,39.36 C41.73,39.36 43.63,38.73 43.63,38.73z "></path>
                </g>
            </g>
            <g id="IcSystemPoolTable32__R_G_L_0_G_L_1_G_N_8_T_0" transform=" translate(40, 40)">
                <g id="IcSystemPoolTable32__R_G_L_0_G_L_1_G">
                    <path id="IcSystemPoolTable32__R_G_L_0_G_L_1_G_D_0_P_0" fill="#222222" fill-opacity="1" fill-rule="nonzero" d=" M42 36 C42.55,36 43,36.45 43,37 C43,37.55 42.55,38 42,38 C41.45,38 41,37.55 41,37 C41,36.45 41.45,36 42,36z "></path>
                </g>
            </g>
            <g id="IcSystemPoolTable32__R_G_L_0_G_L_0_G_N_8_T_0" transform=" translate(40, 40)">
                <g id="IcSystemPoolTable32__R_G_L_0_G_L_0_G" transform=" translate(60, 62.158) translate(-40, -42.158)">
                    <path id="IcSystemPoolTable32__R_G_L_0_G_L_0_G_D_0_P_0" fill="#222222" fill-opacity="1" fill-rule="nonzero" d=" M52 29 C52,29 28,29 28,29 C26.34,29 25,30.34 25,32 C25,32 25,48 25,48 C25,49.66 26.34,51 28,51 C28,51 52,51 52,51 C53.66,51 55,49.66 55,48 C55,48 55,32 55,32 C55,30.34 53.66,29 52,29z  M28 31 C28,31 52,31 52,31 C52.55,31 53,31.45 53,32 C53,32 53,48 53,48 C53,48.55 52.55,49 52,49 C52,49 28,49 28,49 C27.45,49 27,48.55 27,48 C27,48 27,32 27,32 C27,31.45 27.45,31 28,31z "></path>
                    <path id="IcSystemPoolTable32__R_G_L_0_G_L_0_G_D_1_P_0" fill="#222222" fill-opacity="1" fill-rule="nonzero" d=" M52 29 C50.34,29 49,30.34 49,32 C49,33.66 50.34,35 52,35 C53.66,35 55,33.66 55,32 C55,30.34 53.66,29 52,29z  M52 31 C52.55,31 53,31.45 53,32 C53,32.55 52.55,33 52,33 C51.45,33 51,32.55 51,32 C51,31.45 51.45,31 52,31z  M52 45 C50.34,45 49,46.34 49,48 C49,49.66 50.34,51 52,51 C53.66,51 55,49.66 55,48 C55,46.34 53.66,45 52,45z  M52 47 C52.55,47 53,47.45 53,48 C53,48.55 52.55,49 52,49 C51.45,49 51,48.55 51,48 C51,47.45 51.45,47 52,47z "></path>
                    <path id="IcSystemPoolTable32__R_G_L_0_G_L_0_G_D_2_P_0" fill="#222222" fill-opacity="1" fill-rule="nonzero" d=" M28 45 C26.34,45 25,46.34 25,48 C25,49.66 26.34,51 28,51 C29.66,51 31,49.66 31,48 C31,46.34 29.66,45 28,45z  M28 47 C28.55,47 29,47.45 29,48 C29,48.55 28.55,49 28,49 C27.45,49 27,48.55 27,48 C27,47.45 27.45,47 28,47z  M28 29 C26.34,29 25,30.34 25,32 C25,33.66 26.34,35 28,35 C29.66,35 31,33.66 31,32 C31,30.34 29.66,29 28,29z  M28 31 C28.55,31 29,31.45 29,32 C29,32.55 28.55,33 28,33 C27.45,33 27,32.55 27,32 C27,31.45 27.45,31 28,31z "></path>
                    <path id="IcSystemPoolTable32__R_G_L_0_G_L_0_G_D_3_P_0" fill="#222222" fill-opacity="1" fill-rule="nonzero" d=" M40 45 C41.59,45 42.9,46.24 43,47.82 C43,47.82 43,48 43,48 C43,48 43,50 43,50 C43,50 41,50 41,50 C41,50 41,48 41,48 C41,47.45 40.55,47 40,47 C39.49,47 39.07,47.38 39.01,47.88 C39.01,47.88 39,48 39,48 C39,48 39,50 39,50 C39,50 37,50 37,50 C37,50 37,48 37,48 C37,46.34 38.34,45 40,45z  M39 30 C39,30 39,32 39,32 C39,32.55 39.45,33 40,33 C40.51,33 40.93,32.62 40.99,32.12 C40.99,32.12 41,32 41,32 C41,32 41,30 41,30 C41,30 43,30 43,30 C43,30 43,32 43,32 C43,33.66 41.66,35 40,35 C38.41,35.01 37.1,33.76 37.01,32.18 C37.01,32.18 37,32 37,32 C37,32 37,30 37,30 C37,30 39,30 39,30z "></path>
                </g>
            </g>
        </g>
    </g>
    <g id="IcSystemPoolTable32_time_group"></g>
    <defs>
        <animateMotion repeatCount="0" dur="3.3333333333333335" begin="0s" href="#IcSystemPoolTable32__R_G_L_0_G_L_2_G" fill="freeze" keyTimes="0;0.05;0.1;0.145;0.255;1" path="M62.68 59.05 C62.95,59.84 64.5,64.36 64.31,63.8 C64.11,63.23 61.96,57.03 61.5,55.67 C61.5,55.67 61.5,55.67 61.5,55.67 C61.69,56.23 62.48,58.48 62.68,59.05 C62.68,59.05 62.68,59.05 62.68,59.05 " keyPoints="0;0.3;0.79;0.79;1;1" keySplines="0.167 0.167 0.667 1;0.333 0 0.667 1;0.333 0.333 0.667 0.667;0.333 0 0.667 1;0 0 0 0" calcMode="spline" data-original-duration="3.3333333333333335s" max="3.3333333333333335"></animateMotion>
        <animateTransform repeatCount="0" dur="3.3333333333333335" begin="0s" href="#IcSystemPoolTable32__R_G_L_0_G_L_2_G" fill="freeze" attributeName="transform" from="-42.682 -39.047" to="-42.682 -39.047" type="translate" additive="sum" keyTimes="0;1" values="-42.682 -39.047;-42.682 -39.047" keySplines="0 0 1 1" calcMode="spline" data-original-duration="3.3333333333333335s" max="3.3333333333333335"></animateTransform>
        <animateTransform repeatCount="0" dur="3.3333333333333335" begin="0s" href="#IcSystemPoolTable32__R_G_L_0_G_L_2_G_N_8_T_0" fill="freeze" attributeName="transform" from="1 1" to="1 1" type="scale" additive="sum" keyTimes="0;0.025;0.17;0.505;0.53;0.675;1" values="1 1;0.75 0.75;1 1;1 1;0.75 0.75;1 1;1 1" keySplines="0.167 0.167 0 1;0.54 0 0.207 1;0.167 0 0.833 1;0.167 0.167 0 1;0.54 0 0.207 1;0 0 0 0" calcMode="spline" data-original-duration="3.3333333333333335s" max="3.3333333333333335"></animateTransform>
        <animateTransform repeatCount="0" dur="3.3333333333333335" begin="0s" href="#IcSystemPoolTable32__R_G_L_0_G_L_2_G_N_8_T_0" fill="freeze" attributeName="transform" from="-60 -60" to="-60 -60" type="translate" additive="sum" keyTimes="0;1" values="-60 -60;-60 -60" keySplines="0 0 1 1" calcMode="spline" data-original-duration="3.3333333333333335s" max="3.3333333333333335"></animateTransform>
        <animateMotion repeatCount="0" dur="3.3333333333333335" begin="0s" href="#IcSystemPoolTable32__R_G_L_0_G_L_1_G" fill="freeze" keyTimes="0;0.085;0.115;0.179735;0.265;0.5;1" path="M62 57 C62,57 62,57 62,57 C62,57 56.9,51.88 56.9,51.88 C56.9,51.88 47.88,56.75 47.88,56.75 C47.88,56.75 53.38,68 53.38,68 C53.38,68 62.19,57.25 62.19,57.25 C62.19,57.25 62.19,57.25 62.19,57.25 " keyPoints="0;0;0.16;0.4;0.68;1;1" keySplines="0.167 0.167 0.833 0.833;0.167 0.167 0.833 0.833;0.167 0.167 0.833 0.833;0.167 0.167 0.833 0.833;0 0 0.354 1;0 0 0 0" calcMode="spline" data-original-duration="3.3333333333333335s" max="3.3333333333333335"></animateMotion>
        <animateTransform repeatCount="0" dur="3.3333333333333335" begin="0s" href="#IcSystemPoolTable32__R_G_L_0_G_L_1_G" fill="freeze" attributeName="transform" from="-42 -37" to="-42 -37" type="translate" additive="sum" keyTimes="0;1" values="-42 -37;-42 -37" keySplines="0 0 1 1" calcMode="spline" data-original-duration="3.3333333333333335s" max="3.3333333333333335"></animateTransform>
        <animateTransform repeatCount="0" dur="3.3333333333333335" begin="0s" href="#IcSystemPoolTable32__R_G_L_0_G_L_1_G_N_8_T_0" fill="freeze" attributeName="transform" from="1 1" to="1 1" type="scale" additive="sum" keyTimes="0;0.025;0.17;0.505;0.53;0.675;1" values="1 1;0.75 0.75;1 1;1 1;0.75 0.75;1 1;1 1" keySplines="0.167 0.167 0 1;0.54 0 0.207 1;0.167 0 0.833 1;0.167 0.167 0 1;0.54 0 0.207 1;0 0 0 0" calcMode="spline" data-original-duration="3.3333333333333335s" max="3.3333333333333335"></animateTransform>
        <animateTransform repeatCount="0" dur="3.3333333333333335" begin="0s" href="#IcSystemPoolTable32__R_G_L_0_G_L_1_G_N_8_T_0" fill="freeze" attributeName="transform" from="-60 -60" to="-60 -60" type="translate" additive="sum" keyTimes="0;1" values="-60 -60;-60 -60" keySplines="0 0 1 1" calcMode="spline" data-original-duration="3.3333333333333335s" max="3.3333333333333335"></animateTransform>
        <animateTransform repeatCount="0" dur="3.3333333333333335" begin="0s" href="#IcSystemPoolTable32__R_G_L_0_G_L_0_G_N_8_T_0" fill="freeze" attributeName="transform" from="1 1" to="1 1" type="scale" additive="sum" keyTimes="0;0.025;0.17;0.505;0.53;0.675;1" values="1 1;0.75 0.75;1 1;1 1;0.75 0.75;1 1;1 1" keySplines="0.167 0.167 0 1;0.54 0 0.207 1;0.167 0 0.833 1;0.167 0.167 0 1;0.54 0 0.207 1;0 0 0 0" calcMode="spline" data-original-duration="3.3333333333333335s" max="3.3333333333333335"></animateTransform>
        <animateTransform repeatCount="0" dur="3.3333333333333335" begin="0s" href="#IcSystemPoolTable32__R_G_L_0_G_L_0_G_N_8_T_0" fill="freeze" attributeName="transform" from="-60 -60" to="-60 -60" type="translate" additive="sum" keyTimes="0;1" values="-60 -60;-60 -60" keySplines="0 0 1 1" calcMode="spline" data-original-duration="3.3333333333333335s" max="3.3333333333333335"></animateTransform>
        <animate attributeType="XML" attributeName="opacity" dur="3" from="0" to="1" href="#IcSystemPoolTable32_time_group" data-original-duration="3s" repeatCount="0" max="3"></animate>
    </defs>
</svg>