<svg xmlns="http://www.w3.org/2000/svg" preserveAspectRatio="xMidYMid meet" aria-hidden="true" role="presentation" focusable="false" viewBox="0 0 100 100" style="display: block; height: 52px; width: 52px; fill: currentcolor;">
    <g id="IcSystemFireExtinguisher32__R_G">
        <g id="IcSystemFireExtinguisher32__R_G_L_0_G" transform=" translate(50, 50) scale(2, 2) translate(-40, -40)">
            <g id="IcSystemFireExtinguisher32__R_G_L_0_G_L_0_G_N_1_T_0" transform=" translate(40, 40)">
                <g id="IcSystemFireExtinguisher32__R_G_L_0_G_L_0_G" transform=" translate(58.5, 60) translate(-38.5, -40)">
                    <path id="IcSystemFireExtinguisher32__R_G_L_0_G_L_0_G_D_0_P_0" stroke="#000000" stroke-linecap="round" stroke-linejoin="round" fill="none" stroke-width="2" stroke-opacity="1" d=" M40 33 C43.31,33 46,35.69 46,39 C46,39 46,39 46,39 C46,39 46,54 46,54 C46,54.55 45.55,55 45,55 C45,55 35,55 35,55 C34.45,55 34,54.55 34,54 C34,54 34,39 34,39 C34,39 34,38.78 34,38.78 C34.12,35.57 36.76,33 40,33z "></path>
                    <path id="IcSystemFireExtinguisher32__R_G_L_0_G_L_0_G_D_1_P_0" stroke="#000000" stroke-linecap="round" stroke-linejoin="round" fill="none" stroke-width="2" stroke-opacity="1" d=" M31 47 C31,47 35,47 35,47 C35,47 31,47 31,47z "></path>
                    <path id="IcSystemFireExtinguisher32__R_G_L_0_G_L_0_G_D_2_P_0" stroke="#000000" stroke-linecap="round" stroke-linejoin="round" fill="none" stroke-width="2" stroke-opacity="1" d=" M40 29 C40,29 40,33 40,33 C40,33 40,29 40,29z "></path>
                    <path id="IcSystemFireExtinguisher32__R_G_L_0_G_L_0_G_D_3_P_0" stroke="#000000" stroke-linecap="round" stroke-linejoin="round" fill="none" stroke-width="2" stroke-opacity="1" d=" M47 29 C47,29 40,29 40,29 C34.48,29 30,33.48 30,39 C30,39 30,52 30,52 "></path>
                    <path id="IcSystemFireExtinguisher32__R_G_L_0_G_L_0_G_D_4_P_0" stroke="#000000" stroke-linecap="round" stroke-linejoin="round" fill="none" stroke-width="2" stroke-opacity="1" d=" M40 29 C40,29 45,25 45,25 C45,25 40,29 40,29z "></path>
                    <path id="IcSystemFireExtinguisher32__R_G_L_0_G_L_0_G_D_5_P_0" fill="#ffffff" fill-opacity="1" fill-rule="nonzero" d=" M40 31 C41.11,31 42,30.11 42,29 C42,27.9 41.11,27 40,27 C38.9,27 38,27.9 38,29 C38,30.11 38.9,31 40,31z "></path>
                    <path id="IcSystemFireExtinguisher32__R_G_L_0_G_L_0_G_D_6_P_0" stroke="#000000" stroke-linecap="round" stroke-linejoin="round" fill="none" stroke-width="2" stroke-opacity="1" d=" M40 31 C41.11,31 42,30.11 42,29 C42,27.9 41.11,27 40,27 C38.9,27 38,27.9 38,29 C38,30.11 38.9,31 40,31z "></path>
                </g>
            </g>
        </g>
    </g>
    <g id="IcSystemFireExtinguisher32_time_group"></g>
    <defs>
        <animateTransform repeatCount="0" dur="3.3333333333333335" begin="0s" href="#IcSystemFireExtinguisher32__R_G_L_0_G_L_0_G_N_1_T_0" fill="freeze" attributeName="transform" from="1 1" to="1 1" type="scale" additive="sum" keyTimes="0;0.025;0.17;0.505;0.53;0.675;1" values="1 1;0.75 0.75;1 1;1 1;0.75 0.75;1 1;1 1" keySplines="0.167 0.167 0 1;0.54 0 0.207 1;0.167 0 0.833 1;0.167 0.167 0 1;0.54 0 0.207 1;0 0 0 0" calcMode="spline" data-original-duration="3.3333333333333335s" max="3.3333333333333335"></animateTransform>
        <animateTransform repeatCount="0" dur="3.3333333333333335" begin="0s" href="#IcSystemFireExtinguisher32__R_G_L_0_G_L_0_G_N_1_T_0" fill="freeze" attributeName="transform" from="-60 -60" to="-60 -60" type="translate" additive="sum" keyTimes="0;1" values="-60 -60;-60 -60" keySplines="0 0 1 1" calcMode="spline" data-original-duration="3.3333333333333335s" max="3.3333333333333335"></animateTransform>
        <animate attributeType="XML" attributeName="opacity" dur="3" from="0" to="1" href="#IcSystemFireExtinguisher32_time_group" data-original-duration="3s" repeatCount="0" max="3"></animate>
    </defs>
</svg>