<svg viewBox="0 0 32 32" xmlns="http://www.w3.org/2000/svg" aria-hidden="true" role="presentation" focusable="false" style="display: block; height: 24px; width: 24px; fill: currentcolor;">
    <path d="M2 6.242l2 2V16h3.1a4.998 4.998 0 0 1 1.763-2.894l1.428 1.428a3 3 0 1 0 4.175 4.175l1.428 1.428a4.997 4.997 0 0 1-2.978 1.78 5.002 5.002 0 0 1-4.7 4.078L8 26H4v4H2V20h2v4h4a3.001 3.001 0 0 0 2.872-2.13A5.004 5.004 0 0 1 7.1 18.002L4 18a2 2 0 0 1-1.995-1.85L2 16V6.242zm1.707-3.95l26 26-1.414 1.415-26-26 1.414-1.414zM7.242 3H23a2 2 0 0 1 1.994 1.85L25 5v1.522l5-1.999v11.954l-5-2V16a2 2 0 0 1-1.85 1.994L23 18h-.757l-2-2H23V5H9.242l-2-2zM28 7.476l-3 1.2v3.647l3 1.2V7.476z"></path>
</svg>