<svg xmlns="http://www.w3.org/2000/svg" preserveAspectRatio="xMidYMid meet" aria-hidden="true" role="presentation" focusable="false" viewBox="0 0 100 100" style="display: block; height: 52px; width: 52px; fill: currentcolor;">
    <g id="IcSystemGym32__R_G">
        <g id="IcSystemGym32__R_G_L_0_G" transform=" translate(50, 50) scale(2, 2) translate(-40, -40)">
            <g id="IcSystemGym32__R_G_L_0_G_L_0_G_N_1_T_0" transform=" translate(40, 40)">
                <g id="IcSystemGym32__R_G_L_0_G_L_0_G" transform=" translate(60, 60) translate(-40, -40)">
                    <path id="IcSystemGym32__R_G_L_0_G_L_0_G_D_0_P_0" stroke="#222222" stroke-linecap="round" stroke-linejoin="round" fill="none" stroke-width="2" stroke-opacity="1" d=" M50 34 C50,34 52,34 52,34 C52.55,34 53,34.45 53,35 C53,35 53,45 53,45 C53,45.55 52.55,46 52,46 C52,46 50,46 50,46 C49.45,46 49,45.55 49,45 C49,45 49,35 49,35 C49,34.45 49.45,34 50,34z "></path>
                    <path id="IcSystemGym32__R_G_L_0_G_L_0_G_D_1_P_0" stroke="#222222" stroke-linecap="round" stroke-linejoin="round" fill="none" stroke-width="2" stroke-opacity="1" d=" M46 30 C46,30 48,30 48,30 C48.55,30 49,30.45 49,31 C49,31 49,49 49,49 C49,49.55 48.55,50 48,50 C48,50 46,50 46,50 C45.45,50 45,49.55 45,49 C45,49 45,31 45,31 C45,30.45 45.45,30 46,30z "></path>
                    <path id="IcSystemGym32__R_G_L_0_G_L_0_G_D_2_P_0" stroke="#222222" stroke-linecap="round" stroke-linejoin="round" fill="none" stroke-width="2" stroke-opacity="1" d=" M32 30 C32,30 34,30 34,30 C34.55,30 35,30.45 35,31 C35,31 35,49 35,49 C35,49.55 34.55,50 34,50 C34,50 32,50 32,50 C31.45,50 31,49.55 31,49 C31,49 31,31 31,31 C31,30.45 31.45,30 32,30z "></path>
                    <path id="IcSystemGym32__R_G_L_0_G_L_0_G_D_3_P_0" stroke="#222222" stroke-linecap="round" stroke-linejoin="round" fill="none" stroke-width="2" stroke-opacity="1" d=" M28 34 C28,34 30,34 30,34 C30.55,34 31,34.45 31,35 C31,35 31,45 31,45 C31,45.55 30.55,46 30,46 C30,46 28,46 28,46 C27.45,46 27,45.55 27,45 C27,45 27,35 27,35 C27,34.45 27.45,34 28,34z "></path>
                    <path id="IcSystemGym32__R_G_L_0_G_L_0_G_D_4_P_0" stroke="#222222" stroke-linecap="round" stroke-linejoin="round" fill="none" stroke-width="2" stroke-opacity="1" d=" M53 40 C53,40 56,40 56,40 "></path>
                    <path id="IcSystemGym32__R_G_L_0_G_L_0_G_D_5_P_0" stroke="#222222" stroke-linecap="round" stroke-linejoin="round" fill="none" stroke-width="2" stroke-opacity="1" d=" M35 40 C35,40 45,40 45,40 "></path>
                    <path id="IcSystemGym32__R_G_L_0_G_L_0_G_D_6_P_0" stroke="#222222" stroke-linecap="round" stroke-linejoin="round" fill="none" stroke-width="2" stroke-opacity="1" d=" M24 40 C24,40 27,40 27,40 "></path>
                </g>
            </g>
        </g>
    </g>
    <g id="IcSystemGym32_time_group"></g>
    <defs>
        <animateTransform repeatCount="0" dur="3.3333333333333335" begin="0s" href="#IcSystemGym32__R_G_L_0_G_L_0_G_N_1_T_0" fill="freeze" attributeName="transform" from="1 1" to="1 1" type="scale" additive="sum" keyTimes="0;0.025;0.17;0.505;0.53;0.675;1" values="1 1;0.75 0.75;1 1;1 1;0.75 0.75;1 1;1 1" keySplines="0.167 0.167 0 1;0.54 0 0.207 1;0.167 0 0.833 1;0.167 0.167 0 1;0.54 0 0.207 1;0 0 0 0" calcMode="spline" data-original-duration="3.3333333333333335s" max="3.3333333333333335"></animateTransform>
        <animateTransform repeatCount="0" dur="3.3333333333333335" begin="0s" href="#IcSystemGym32__R_G_L_0_G_L_0_G_N_1_T_0" fill="freeze" attributeName="transform" from="-60 -60" to="-60 -60" type="translate" additive="sum" keyTimes="0;1" values="-60 -60;-60 -60" keySplines="0 0 1 1" calcMode="spline" data-original-duration="3.3333333333333335s" max="3.3333333333333335"></animateTransform>
        <animate attributeType="XML" attributeName="opacity" dur="3" from="0" to="1" href="#IcSystemGym32_time_group" data-original-duration="3s" repeatCount="0" max="3"></animate>
    </defs>
</svg>