<svg viewBox="0 0 32 32" xmlns="http://www.w3.org/2000/svg" aria-hidden="true" role="presentation" focusable="false" style="display: block; height: 24px; width: 24px; fill: currentcolor;">
    <path d="M3.486 7.727l1.447 1.448A12.94 12.94 0 0 0 3 16c0 7.18 5.82 13 13 13 2.503 0 4.84-.707 6.824-1.933l1.448 1.448A14.93 14.93 0 0 1 16 31C7.716 31 1 24.284 1 16c0-3.057.915-5.901 2.486-8.273zm.221-5.434l26 26-1.414 1.414-26-26 1.414-1.414zM16 1c8.284 0 15 6.716 15 15 0 3.057-.914 5.9-2.485 8.272l-1.448-1.448A12.94 12.94 0 0 0 29 16c0-7.18-5.82-13-13-13a12.94 12.94 0 0 0-6.825 1.933L7.727 3.486A14.93 14.93 0 0 1 16 1zm-4.9 16a5.006 5.006 0 0 0 3.9 3.9v2.03A7.005 7.005 0 0 1 9.071 17h2.03zm5.9 4.243l1.352 1.352a6.954 6.954 0 0 1-1.351.334L17 21.243zM21.243 17l1.686.001c-.067.467-.18.919-.334 1.351L21.243 17zm-4.242-7.929A7.005 7.005 0 0 1 22.929 15H20.9A5.006 5.006 0 0 0 17 11.1l.001-2.029zm-7.596 4.577L10.757 15 9.071 15c.067-.467.18-.92.334-1.352zM15 9.071l-.001 1.686-1.35-1.352A6.954 6.954 0 0 1 15 9.07zM23 8a1 1 0 1 1 0 2 1 1 0 0 1 0-2z"></path>
</svg>