<svg xmlns="http://www.w3.org/2000/svg" preserveAspectRatio="xMidYMid meet" style="display:block;height:52px;width:52px;fill:currentColor" aria-hidden="true" role="presentation" focusable="false" viewBox="0 0 100 100">
    <g id="IcSystemParkingStreet32__R_G">
        <g id="IcSystemParkingStreet32__R_G_L_0_G" transform=" translate(50, 50) scale(2, 2) translate(-40, -40)">
            <g id="IcSystemParkingStreet32__R_G_L_0_G_L_2_G_N_5_T_0" transform=" translate(40, 40)">
                <g id="IcSystemParkingStreet32__R_G_L_0_G_L_2_G" transform=" translate(60, 57)">
                    <path id="IcSystemParkingStreet32__R_G_L_0_G_L_2_G_D_0_P_0" fill="#222222" fill-opacity="1" fill-rule="nonzero" d=" M42.2 32.4 C42.2,32.4 43.8,33.6 43.8,33.6 C43.8,33.6 40.8,37.6 40.8,37.6 C40.8,37.6 39.2,36.4 39.2,36.4 C39.2,36.4 42.2,32.4 42.2,32.4z "></path>
                </g>
            </g>
            <g id="IcSystemParkingStreet32__R_G_L_0_G_L_1_G_N_1_N_5_T_0_M">
                <g id="IcSystemParkingStreet32__R_G_L_0_G_L_1_G_N_1_N_5_T_0" transform=" translate(40, 40)">
                    <g id="IcSystemParkingStreet32__R_G_L_0_G_L_1_G_N_1_T_0" transform=" translate(60, 60) translate(-40, -40)">
                        <g id="IcSystemParkingStreet32__R_G_L_0_G_L_1_G">
                            <path id="IcSystemParkingStreet32__R_G_L_0_G_L_1_G_D_0_P_0" stroke="#222222" stroke-linecap="round" stroke-linejoin="round" fill="none" stroke-width="2" stroke-opacity="1" d=" M0 -2.46 C1.36,-2.46 2.46,-1.36 2.46,0 C2.46,1.36 1.36,2.46 0,2.46 C-1.36,2.46 -2.46,1.36 -2.46,0 C-2.46,-1.36 -1.36,-2.46 0,-2.46z "></path>
                        </g>
                    </g>
                </g>
            </g>
            <g id="IcSystemParkingStreet32__R_G_L_0_G_L_0_G_N_5_T_0" transform=" translate(40, 40)">
                <g id="IcSystemParkingStreet32__R_G_L_0_G_L_0_G" transform=" translate(60, 60) translate(-40, -40)">
                    <path id="IcSystemParkingStreet32__R_G_L_0_G_L_0_G_D_0_P_0" fill="#222222" fill-opacity="1" fill-rule="nonzero" d=" M32.36 52 C32.36,52 32.06,51.57 32.06,51.57 C28.7,46.69 27,41.73 27,36.72 C27,29.69 32.83,24 40,24 C46.97,24 53,30.1 53,36.72 C53,41.73 51.31,46.69 47.94,51.57 C47.94,51.57 47.64,52 47.64,52 C47.64,52 41,52 41,52 C41,52 41,56 41,56 C41,56 39,56 39,56 C39,56 39,52 39,52 C39,52 32.36,52 32.36,52z  M40 26 C33.92,26 29,30.81 29,36.72 C29,41 30.36,45.26 33.1,49.52 C33.1,49.52 33.41,50 33.41,50 C33.41,50 46.59,50 46.59,50 C46.59,50 46.9,49.52 46.9,49.52 C49.54,45.42 50.9,41.31 51,37.18 C51,37.18 51,36.72 51,36.72 C51,31.2 45.86,26 40,26z "></path>
                    <path id="IcSystemParkingStreet32__R_G_L_0_G_L_0_G_D_1_P_0" fill="#222222" fill-opacity="1" fill-rule="nonzero" d=" M40 41 C38.34,41 37,42.34 37,44 C37,45.66 38.34,47 40,47 C41.66,47 43,45.66 43,44 C43,42.34 41.66,41 40,41z  M40 43 C40.55,43 41,43.45 41,44 C41,44.55 40.55,45 40,45 C39.45,45 39,44.55 39,44 C39,43.45 39.45,43 40,43z  M40 28 C35.03,28 31,32.03 31,37 C31,37 31,38 31,38 C31,38 49,38 49,38 C49,38 49,37 49,37 C49,32.03 44.97,28 40,28z  M40.24 30 C43.56,30.12 46.34,32.55 46.9,35.82 C46.9,35.82 46.93,36 46.93,36 C46.93,36 33.07,36 33.07,36 C33.07,36 33.1,35.82 33.1,35.82 C33.68,32.46 36.59,30 40,30 C40,30 40.24,30 40.24,30z "></path>
                </g>
            </g>
        </g>
    </g>
    <g id="IcSystemParkingStreet32_time_group"></g>
    <defs>
        <animateTransform repeatCount="0" dur="3.3333333333333335" begin="0s" href="#IcSystemParkingStreet32__R_G_L_0_G_L_2_G" fill="freeze" attributeName="transform" from="0" to="0" type="rotate" additive="sum" keyTimes="0;0.025;0.265;0.315;0.355;1" values="0;-31;-31;10;0;0" keySplines="0.167 0.167 0.537 1;0.167 0 0.667 1;0.333 0 0.667 1;0.333 0 0.667 1;0 0 0 0" calcMode="spline" data-original-duration="3.3333333333333335s" max="3.3333333333333335"></animateTransform>
        <animateTransform repeatCount="0" dur="3.3333333333333335" begin="0s" href="#IcSystemParkingStreet32__R_G_L_0_G_L_2_G" fill="freeze" attributeName="transform" from="-40 -37" to="-40 -37" type="translate" additive="sum" keyTimes="0;1" values="-40 -37;-40 -37" keySplines="0 0 1 1" calcMode="spline" data-original-duration="3.3333333333333335s" max="3.3333333333333335"></animateTransform>
        <animateTransform repeatCount="0" dur="3.3333333333333335" begin="0s" href="#IcSystemParkingStreet32__R_G_L_0_G_L_2_G_N_5_T_0" fill="freeze" attributeName="transform" from="1 1" to="1 1" type="scale" additive="sum" keyTimes="0;0.025;0.17;0.505;0.53;0.675;1" values="1 1;0.75 0.75;1 1;1 1;0.75 0.75;1 1;1 1" keySplines="0.167 0.167 0 1;0.54 0 0.207 1;0.167 0 0.833 1;0.167 0.167 0 1;0.54 0 0.207 1;0 0 0 0" calcMode="spline" data-original-duration="3.3333333333333335s" max="3.3333333333333335"></animateTransform>
        <animateTransform repeatCount="0" dur="3.3333333333333335" begin="0s" href="#IcSystemParkingStreet32__R_G_L_0_G_L_2_G_N_5_T_0" fill="freeze" attributeName="transform" from="-60 -60" to="-60 -60" type="translate" additive="sum" keyTimes="0;1" values="-60 -60;-60 -60" keySplines="0 0 1 1" calcMode="spline" data-original-duration="3.3333333333333335s" max="3.3333333333333335"></animateTransform>
        <animateMotion repeatCount="0" dur="3.3333333333333335" begin="0s" href="#IcSystemParkingStreet32__R_G_L_0_G_L_1_G" fill="freeze" keyTimes="0;0.025;0.085;0.16;0.205;0.235;0.28;1" path="M40 9.42 C40,9.42 40,9.42 40,9.42 C40,10.46 40,14.63 40,15.67 C40,15.67 40,15.67 40,15.67 C40,16.62 40,17.67 40,20.05 C40,22.76 40,19.42 40,21.8 C40,24.51 40,26.83 40,27.92 C40,27.92 40,27.92 40,27.92 " keyPoints="0;0;0.33;0.33;0.56;0.68;1;1" keySplines="0.167 0.167 0.177 1;0.167 0.167 0.177 1;0.333 0.333 0.833 0.833;0.551 0 0.667 1;0.333 0 0.667 1;0.333 0 0.833 0.833;0 0 0 0" calcMode="spline" data-original-duration="3.3333333333333335s" max="3.3333333333333335"></animateMotion>
        <animateTransform repeatCount="0" dur="3.3333333333333335" begin="0s" href="#IcSystemParkingStreet32__R_G_L_0_G_L_1_G" fill="freeze" attributeName="transform" from="0 0" to="0 0" type="scale" additive="sum" keyTimes="0;0.025;0.085;0.205;0.235;0.27;1" values="0 0;0 0;1 1;1 1;0.68 0.68;0 0;0 0" keySplines="0.167 0.167 0.667 1;0.167 0.167 0.667 1;0.167 0 0.833 1;0.167 0 0.833 1;0.167 0 0.833 0.833;0 0 0 0" calcMode="spline" data-original-duration="3.3333333333333335s" max="3.3333333333333335"></animateTransform>
        <animateTransform repeatCount="0" dur="3.3333333333333335" begin="0s" href="#IcSystemParkingStreet32__R_G_L_0_G_L_1_G" fill="freeze" attributeName="transform" from="0 2.457" to="0 2.457" type="translate" additive="sum" keyTimes="0;1" values="0 2.457;0 2.457" keySplines="0 0 1 1" calcMode="spline" data-original-duration="3.3333333333333335s" max="3.3333333333333335"></animateTransform>
        <animateTransform repeatCount="0" dur="3.3333333333333335" begin="0s" href="#IcSystemParkingStreet32__R_G_L_0_G_L_1_G_N_1_N_5_T_0" fill="freeze" attributeName="transform" from="1 1" to="1 1" type="scale" additive="sum" keyTimes="0;0.025;0.17;0.505;0.53;0.675;1" values="1 1;0.75 0.75;1 1;1 1;0.75 0.75;1 1;1 1" keySplines="0.167 0.167 0 1;0.54 0 0.207 1;0.167 0 0.833 1;0.167 0.167 0 1;0.54 0 0.207 1;0 0 0 0" calcMode="spline" data-original-duration="3.3333333333333335s" max="3.3333333333333335"></animateTransform>
        <animateTransform repeatCount="0" dur="3.3333333333333335" begin="0s" href="#IcSystemParkingStreet32__R_G_L_0_G_L_1_G_N_1_N_5_T_0" fill="freeze" attributeName="transform" from="-60 -60" to="-60 -60" type="translate" additive="sum" keyTimes="0;1" values="-60 -60;-60 -60" keySplines="0 0 1 1" calcMode="spline" data-original-duration="3.3333333333333335s" max="3.3333333333333335"></animateTransform>
        <animate repeatCount="0" dur="3.3333333333333335" begin="0s" href="#IcSystemParkingStreet32__R_G_L_0_G_L_1_G_N_1_N_5_T_0_M" fill="freeze" attributeName="opacity" from="1" to="0" keyTimes="0;0.285;0.285;1" values="1;1;0;0" keySplines="0 0 0 0;0 0 0 0;0 0 0 0" calcMode="spline" data-original-duration="3.3333333333333335s" max="3.3333333333333335"></animate>
        <animateTransform repeatCount="0" dur="3.3333333333333335" begin="0s" href="#IcSystemParkingStreet32__R_G_L_0_G_L_0_G_N_5_T_0" fill="freeze" attributeName="transform" from="1 1" to="1 1" type="scale" additive="sum" keyTimes="0;0.025;0.17;0.505;0.53;0.675;1" values="1 1;0.75 0.75;1 1;1 1;0.75 0.75;1 1;1 1" keySplines="0.167 0.167 0 1;0.54 0 0.207 1;0.167 0 0.833 1;0.167 0.167 0 1;0.54 0 0.207 1;0 0 0 0" calcMode="spline" data-original-duration="3.3333333333333335s" max="3.3333333333333335"></animateTransform>
        <animateTransform repeatCount="0" dur="3.3333333333333335" begin="0s" href="#IcSystemParkingStreet32__R_G_L_0_G_L_0_G_N_5_T_0" fill="freeze" attributeName="transform" from="-60 -60" to="-60 -60" type="translate" additive="sum" keyTimes="0;1" values="-60 -60;-60 -60" keySplines="0 0 1 1" calcMode="spline" data-original-duration="3.3333333333333335s" max="3.3333333333333335"></animateTransform>
        <animate attributeType="XML" attributeName="opacity" dur="3" from="0" to="1" href="#IcSystemParkingStreet32_time_group" data-original-duration="3s" repeatCount="0" max="3"></animate>
    </defs>
</svg>