<svg xmlns="http://www.w3.org/2000/svg" preserveAspectRatio="xMidYMid meet" style="display:block;height:52px;width:52px;fill:currentColor" aria-hidden="true" role="presentation" focusable="false" viewBox="0 0 100 100">
    <g id="IcSystemFrontDesk32__R_G">
        <g id="IcSystemFrontDesk32__R_G_L_0_G" transform=" translate(50, 50) scale(2, 2) translate(-40, -40)">
            <g id="IcSystemFrontDesk32__R_G_L_0_G_L_0_G_N_2_T_0" transform=" translate(40, 40)">
                <g id="IcSystemFrontDesk32__R_G_L_0_G_L_0_G" transform=" translate(60, 60.5) translate(-40, -40.5)">
                    <path id="IcSystemFrontDesk32__R_G_L_0_G_L_0_G_D_0_P_0" fill="#222222" fill-opacity="1" fill-rule="nonzero" d=" M55 40 C55,40 55,42 55,42 C55,42 25,42 25,42 C25,42 25,40 25,40 C25,40 55,40 55,40z "></path>
                    <path id="IcSystemFrontDesk32__R_G_L_0_G_L_0_G_D_1_P_0" fill="#222222" fill-opacity="1" fill-rule="nonzero" d=" M29 41 C29,41 29,55 29,55 C29,55 27,55 27,55 C27,55 27,41 27,41 C27,41 29,41 29,41z "></path>
                    <path id="IcSystemFrontDesk32__R_G_L_0_G_L_0_G_D_2_P_0" fill="#222222" fill-opacity="1" fill-rule="nonzero" d=" M53 41 C53,41 53,55 53,55 C53,55 51,55 51,55 C51,55 51,41 51,41 C51,41 53,41 53,41z "></path>
                    <path id="IcSystemFrontDesk32__R_G_L_0_G_L_0_G_D_3_P_0" fill="#222222" fill-opacity="1" fill-rule="nonzero" d=" M52 40 C52,40 28,40 28,40 C27.45,40 27,40.45 27,41 C27,41 27,49 27,49 C27,51.21 28.79,53 31,53 C31,53 49,53 49,53 C51.21,53 53,51.21 53,49 C53,49 53,41 53,41 C53,40.45 52.55,40 52,40z  M29 42 C29,42 51,42 51,42 C51,42 51,49 51,49 C51,50.11 50.11,51 49,51 C49,51 31,51 31,51 C31,51 30.85,51 30.85,51 C29.81,50.92 29,50.05 29,49 C29,49 29,42 29,42z "></path>
                    <path id="IcSystemFrontDesk32__R_G_L_0_G_L_0_G_D_4_P_0" fill="#222222" fill-opacity="1" fill-rule="nonzero" d=" M52 40 C52,40 28,40 28,40 C27.45,40 27,40.45 27,41 C27,41 27,49 27,49 C27,51.21 28.79,53 31,53 C31,53 49,53 49,53 C51.21,53 53,51.21 53,49 C53,49 53,41 53,41 C53,40.45 52.55,40 52,40z  M29 42 C29,42 51,42 51,42 C51,42 51,49 51,49 C51,50.11 50.11,51 49,51 C49,51 31,51 31,51 C31,51 30.85,51 30.85,51 C29.81,50.92 29,50.05 29,49 C29,49 29,42 29,42z "></path>
                    <path id="IcSystemFrontDesk32__R_G_L_0_G_L_0_G_D_5_P_0" fill="#222222" fill-opacity="1" fill-rule="nonzero" d=" M49 34 C49,34 49,40 49,40 C49,40 47,40 47,40 C47,40 47,34 47,34 C47,34 49,34 49,34z "></path>
                    <path id="IcSystemFrontDesk32__R_G_L_0_G_L_0_G_D_6_P_0" fill="#222222" fill-opacity="1" fill-rule="nonzero" d=" M50 26 C50,26 46,26 46,26 C45.55,26 45.16,26.3 45.04,26.73 C45.04,26.73 43.04,33.73 43.04,33.73 C42.89,34.26 43.19,34.81 43.72,34.96 C43.81,34.99 43.91,35 44,35 C44,35 52,35 52,35 C52.55,35 53,34.55 53,34 C53,33.91 52.99,33.82 52.96,33.73 C52.96,33.73 50.96,26.73 50.96,26.73 C50.84,26.3 50.45,26 50,26z  M49.25 28 C49.25,28 50.67,33 50.67,33 C50.67,33 45.33,33 45.33,33 C45.33,33 46.75,28 46.75,28 C46.75,28 49.25,28 49.25,28z  M36 35 C36,35 31,35 31,35 C30.45,35 30,35.45 30,36 C30,36 30,41 30,41 C30,41.55 30.45,42 31,42 C31,42 36,42 36,42 C36.55,42 37,41.55 37,41 C37,41 37,36 37,36 C37,35.45 36.55,35 36,35z  M35 37 C35,37 35,40 35,40 C35,40 32,40 32,40 C32,40 32,37 32,37 C32,37 35,37 35,37z "></path>
                    <path id="IcSystemFrontDesk32__R_G_L_0_G_L_0_G_D_7_P_0" fill="#222222" fill-opacity="1" fill-rule="nonzero" d=" M31.91 31.59 C31.91,31.59 33.7,35.62 33.7,35.62 C33.7,35.62 31.88,36.44 31.88,36.44 C31.88,36.44 30.09,32.41 30.09,32.41 C30.09,32.41 31.91,31.59 31.91,31.59z "></path>
                </g>
            </g>
        </g>
    </g>
    <g id="IcSystemFrontDesk32_time_group"></g>
    <defs>
        <animateTransform repeatCount="0" dur="3.3333333333333335" begin="0s" href="#IcSystemFrontDesk32__R_G_L_0_G_L_0_G_N_2_T_0" fill="freeze" attributeName="transform" from="1 1" to="1 1" type="scale" additive="sum" keyTimes="0;0.025;0.17;0.505;0.53;0.675;1" values="1 1;0.75 0.75;1 1;1 1;0.75 0.75;1 1;1 1" keySplines="0.167 0.167 0 1;0.54 0 0.207 1;0.167 0 0.833 1;0.167 0.167 0 1;0.54 0 0.207 1;0 0 0 0" calcMode="spline" data-original-duration="3.3333333333333335s" max="3.3333333333333335"></animateTransform>
        <animateTransform repeatCount="0" dur="3.3333333333333335" begin="0s" href="#IcSystemFrontDesk32__R_G_L_0_G_L_0_G_N_2_T_0" fill="freeze" attributeName="transform" from="-60 -60" to="-60 -60" type="translate" additive="sum" keyTimes="0;1" values="-60 -60;-60 -60" keySplines="0 0 1 1" calcMode="spline" data-original-duration="3.3333333333333335s" max="3.3333333333333335"></animateTransform>
        <animate attributeType="XML" attributeName="opacity" dur="3" from="0" to="1" href="#IcSystemFrontDesk32_time_group" data-original-duration="3s" repeatCount="0" max="3"></animate>
    </defs>
</svg>