<svg viewBox="0 0 32 32" xmlns="http://www.w3.org/2000/svg" aria-hidden="true" role="presentation" focusable="false" style="display: block; height: 24px; width: 24px; fill: currentcolor;">
    <path d="M24.5 28.743l2 2V31h-2v-2.257zm-10-10l5.995 5.995.005.262c0 3.27-2.183 6-5 6s-5-2.73-5-6c0-2.872 1.683-5.326 4-5.882v-.375zM1.5 5.742l2 2V19h3.995l-.017-.964-.027-.949c-.078-2.232-.249-4.195-.498-5.892l2.276 2.276c.167 1.819.258 3.831.27 6.034L9.5 21H3.499L3.5 31h-2V5.742zm2.207-3.45l26 26-1.414 1.415-26-26 1.414-1.414zM15.5 21c-1.602 0-3 1.748-3 4s1.398 4 3 4 3-1.748 3-4-1.398-4-3-4zm10-20a5 5 0 0 1 5 5l-.002.369-.014.74a40.634 40.634 0 0 1-.27 3.67l-.093.715c-.033.237-.068.471-.104.704l-.117.69-.128.677-.14.66c-.7 3.142-1.789 5.628-3.131 6.468l-.001 1.564-3.685-3.684c-1.403-2.792-2.272-7.59-2.314-12.228L20.5 6l.005-.217A5 5 0 0 1 25.5 1zm-1 2.17a3.002 3.002 0 0 0-1.995 2.654L22.5 6l.002.31c.045 4.321 1.031 9.133 1.999 11.39V3.17zm2 .001v14.526c.99-2.31 2-7.298 2-11.697a3.001 3.001 0 0 0-2-2.829zM16.5 1v11.258l-2-2V1h2z"></path>
</svg>