<svg viewBox="0 0 32 32" xmlns="http://www.w3.org/2000/svg" aria-hidden="true" role="presentation" focusable="false" style="display: block; height: 16px; width: 16px; fill: currentcolor;">
    <path d="M19.862 24.105l1.535 1.536a2 2 0 0 0 2.327 2.327l1.55 1.548A4 4 0 0 1 19.365 26a3.913 3.913 0 0 1 .444-1.8l.052-.095zM11.757 16l8 8H10.81c.344.59.555 1.268.555 2a4 4 0 0 1-8 0c0-1.545.885-2.87 2.167-3.536.025-.039.05-.078.078-.116l.048-.055L9.95 18H8.364a3 3 0 0 0-1.976.743l-.145.136-3.829 3.829L1 21.294l3.829-3.83A5 5 0 0 1 8.1 16.008L8.364 16h3.393zM3.979 2.565l25.456 25.456-1.414 1.414L2.565 3.979l1.414-1.414zM7.365 24a2 2 0 1 0 0 4 2 2 0 0 0 0-4zm23-22v2h-2.343a3 3 0 0 0-1.977.743l-.144.136-.536.535V19c0 .63-.122 1.23-.34 1.782l-8.929-8.929.06-.06-.184-.064-2.365-2.363A4 4 0 0 1 17.365 4a3.983 3.983 0 0 1 3.728 2.6l.066.192.499-.5.272-.27 2.556-2.558a5 5 0 0 1 3.271-1.457L28.022 2h2.343z"></path>
</svg>